# xmcd
#
# Track frame offsets: 
#        150
#        16050
#        29188
#        48519
#        62316
#        78618
#        93831
#        114621
#        132742
#        150176
#        171362
#
# Disc length: 2556 seconds
#
# Revision: 0
# Processed by: cddbd v1.5.2PL0 Copyright (c) Steve Scherf et al.
# Submitted via: ExactAudioCopyFreeDBPlugin 1.0
#
DISCID=8909fa0b
DTITLE=Andre Cymone - The Stone
DYEAR=2013
DGENRE=R&B
TTITLE0=Rock and Roll
TTITLE1=Let Your Sun Shine
TTITLE2=American Dream
TTITLE3=Radio
TTITLE4=Naked
TTITLE5=It's Alright
TTITLE6=One Day
TTITLE7=If Not for You
TTITLE8=The Horseman
TTITLE9=Mary Jane
TTITLE10=Live Life
EXTD=
EXTT0=
EXTT1=
EXTT2=
EXTT3=
EXTT4=
EXTT5=
EXTT6=
EXTT7=
EXTT8=
EXTT9=
EXTT10=
PLAYORDER=
